<?xml version="1.0" encoding="UTF-8"?>
<svg xmlns="http://www.w3.org/2000/svg" xmlns:xlink="http://www.w3.org/1999/xlink" width="32" height="32" viewBox="0 0 32 32" version="1.1">
<defs>
<clipPath id="clip1">
  <path d="M 2.132812 0 L 29.898438 0 L 29.898438 32 L 2.132812 32 Z M 2.132812 0 "/>
</clipPath>
<clipPath id="clip2">
  <path d="M 8.824219 5.707031 L 23.160156 5.707031 L 23.160156 26.316406 L 8.824219 26.316406 Z M 8.824219 5.707031 "/>
</clipPath>
</defs>
<g id="surface1">
<g clip-path="url(#clip1)" clip-rule="nonzero">
<path style=" stroke:none;fill-rule:nonzero;fill:rgb(94.901961%,46.27451%,0.784314%);fill-opacity:1;" d="M 29.882812 24 L 22.957031 28.007812 L 16.011719 32 L 9.066406 28.007812 L 2.140625 24 L 2.140625 8 L 9.066406 3.992188 L 16.011719 0 L 22.957031 3.992188 L 29.882812 8 Z M 29.882812 24 "/>
</g>
<g clip-path="url(#clip2)" clip-rule="nonzero">
<path style=" stroke:none;fill-rule:nonzero;fill:rgb(6.666667%,10.196078%,15.686275%);fill-opacity:1;" d="M 10.925781 18 C 10.800781 17.875 10.683594 17.746094 10.566406 17.613281 C 10.453125 17.476562 10.339844 17.339844 10.238281 17.199219 C 10.132812 17.054688 10.03125 16.910156 9.9375 16.761719 C 9.84375 16.613281 9.753906 16.460938 9.671875 16.304688 C 9.589844 16.148438 9.511719 15.988281 9.4375 15.828125 C 9.367188 15.664062 9.300781 15.5 9.242188 15.335938 C 9.183594 15.167969 9.128906 15 9.082031 14.828125 C 9.035156 14.660156 8.996094 14.488281 8.960938 14.3125 C 8.925781 14.140625 8.898438 13.964844 8.878906 13.789062 C 8.855469 13.613281 8.839844 13.4375 8.832031 13.261719 C 8.824219 13.085938 8.820312 12.910156 8.824219 12.730469 C 8.828125 12.554688 8.839844 12.378906 8.859375 12.203125 C 8.875 12.027344 8.898438 11.851562 8.929688 11.675781 C 8.960938 11.503906 8.996094 11.332031 9.039062 11.160156 C 9.082031 10.988281 9.128906 10.816406 9.1875 10.648438 C 9.242188 10.480469 9.300781 10.316406 9.371094 10.152344 C 9.4375 9.988281 9.511719 9.828125 9.589844 9.671875 C 9.667969 9.511719 9.753906 9.359375 9.84375 9.207031 C 9.9375 9.054688 10.03125 8.90625 10.132812 8.761719 C 10.234375 8.617188 10.339844 8.476562 10.453125 8.339844 C 10.566406 8.203125 10.683594 8.070312 10.804688 7.945312 C 10.925781 7.816406 11.050781 7.691406 11.183594 7.574219 C 11.3125 7.453125 11.449219 7.339844 11.585938 7.234375 C 11.726562 7.125 11.867188 7.019531 12.015625 6.921875 C 12.160156 6.824219 12.3125 6.730469 12.464844 6.644531 C 12.617188 6.558594 12.773438 6.476562 12.933594 6.398438 C 13.09375 6.324219 13.253906 6.253906 13.421875 6.191406 C 13.585938 6.128906 13.75 6.070312 13.921875 6.019531 C 14.089844 5.96875 14.257812 5.921875 14.429688 5.882812 C 14.601562 5.84375 14.777344 5.8125 14.949219 5.785156 C 15.125 5.761719 15.300781 5.742188 15.476562 5.726562 C 15.652344 5.714844 15.828125 5.707031 16.003906 5.707031 L 22.847656 5.707031 L 22.847656 13.511719 L 21.984375 13.511719 L 21.984375 6.574219 L 16.003906 6.574219 C 12.519531 6.574219 9.683594 9.414062 9.683594 12.910156 C 9.683594 16.402344 12.519531 19.246094 16.003906 19.246094 L 16.003906 20.109375 C 15.769531 20.109375 15.535156 20.097656 15.300781 20.074219 C 15.066406 20.054688 14.832031 20.019531 14.601562 19.972656 C 14.371094 19.925781 14.144531 19.871094 13.917969 19.800781 C 13.695312 19.734375 13.472656 19.65625 13.253906 19.5625 C 13.039062 19.472656 12.824219 19.375 12.617188 19.261719 C 12.410156 19.152344 12.210938 19.03125 12.011719 18.898438 C 11.816406 18.765625 11.628906 18.625 11.449219 18.476562 C 11.265625 18.324219 11.09375 18.167969 10.925781 18 Z M 20.984375 11.828125 L 20.984375 7.539062 L 16.003906 7.539062 C 13.050781 7.539062 10.652344 9.949219 10.652344 12.910156 C 10.652344 15.867188 13.050781 18.277344 16.003906 18.277344 L 16.003906 17.414062 C 13.527344 17.414062 11.511719 15.390625 11.511719 12.910156 C 11.511719 10.425781 13.527344 8.40625 16.003906 8.40625 L 20.121094 8.40625 L 20.121094 11.828125 Z M 19.113281 10.917969 L 19.113281 9.371094 L 16.003906 9.371094 C 15.890625 9.371094 15.773438 9.378906 15.660156 9.390625 C 15.542969 9.402344 15.429688 9.417969 15.316406 9.441406 C 15.203125 9.464844 15.09375 9.492188 14.980469 9.527344 C 14.871094 9.558594 14.761719 9.597656 14.65625 9.644531 C 14.550781 9.6875 14.445312 9.738281 14.34375 9.792969 C 14.242188 9.847656 14.140625 9.90625 14.046875 9.96875 C 13.949219 10.035156 13.859375 10.101562 13.769531 10.175781 C 13.679688 10.25 13.59375 10.328125 13.511719 10.410156 C 13.429688 10.492188 13.351562 10.578125 13.28125 10.667969 C 13.207031 10.757812 13.136719 10.847656 13.074219 10.945312 C 13.007812 11.042969 12.949219 11.140625 12.894531 11.242188 C 12.839844 11.34375 12.792969 11.449219 12.746094 11.554688 C 12.703125 11.664062 12.664062 11.773438 12.628906 11.882812 C 12.597656 11.992188 12.570312 12.105469 12.546875 12.21875 C 12.523438 12.332031 12.507812 12.445312 12.496094 12.5625 C 12.484375 12.675781 12.476562 12.792969 12.476562 12.910156 C 12.476562 14.847656 14.042969 16.429688 15.976562 16.445312 C 16.0625 16.441406 16.152344 16.445312 16.238281 16.453125 C 16.328125 16.460938 16.414062 16.472656 16.5 16.492188 C 16.585938 16.507812 16.671875 16.527344 16.753906 16.550781 C 16.839844 16.578125 16.921875 16.605469 17.003906 16.640625 C 17.085938 16.671875 17.164062 16.710938 17.242188 16.75 C 17.320312 16.792969 17.394531 16.835938 17.46875 16.886719 C 17.542969 16.933594 17.613281 16.984375 17.683594 17.039062 C 17.75 17.097656 17.816406 17.15625 17.878906 17.21875 C 17.941406 17.277344 18 17.34375 18.054688 17.410156 C 18.113281 17.480469 18.164062 17.550781 18.214844 17.625 C 18.261719 17.695312 18.308594 17.773438 18.347656 17.847656 C 18.390625 17.925781 18.429688 18.007812 18.460938 18.085938 C 18.496094 18.167969 18.527344 18.25 18.550781 18.335938 C 18.578125 18.421875 18.597656 18.503906 18.617188 18.589844 C 18.632812 18.679688 18.644531 18.765625 18.65625 18.851562 C 18.664062 18.941406 18.667969 19.027344 18.667969 19.117188 C 18.667969 19.203125 18.664062 19.292969 18.65625 19.378906 C 18.644531 19.46875 18.632812 19.554688 18.617188 19.640625 C 18.597656 19.726562 18.578125 19.8125 18.550781 19.898438 C 18.527344 19.980469 18.496094 20.0625 18.460938 20.144531 C 18.429688 20.226562 18.390625 20.304688 18.347656 20.382812 C 18.308594 20.460938 18.261719 20.535156 18.214844 20.609375 C 18.164062 20.683594 18.113281 20.753906 18.054688 20.820312 C 18 20.886719 17.941406 20.953125 17.878906 21.015625 C 17.816406 21.078125 17.75 21.136719 17.683594 21.191406 C 17.613281 21.246094 17.542969 21.300781 17.46875 21.347656 C 17.394531 21.394531 17.320312 21.441406 17.242188 21.480469 C 17.164062 21.523438 17.085938 21.558594 17.003906 21.59375 C 16.921875 21.625 16.839844 21.65625 16.753906 21.679688 C 16.671875 21.703125 16.585938 21.726562 16.5 21.742188 C 16.414062 21.757812 16.328125 21.769531 16.238281 21.777344 C 16.152344 21.785156 16.0625 21.789062 15.976562 21.789062 L 13.730469 21.789062 L 13.730469 21.105469 L 12.867188 21.105469 L 12.867188 22.652344 L 15.976562 22.652344 C 16.089844 22.652344 16.207031 22.644531 16.320312 22.636719 C 16.433594 22.625 16.550781 22.605469 16.664062 22.582031 C 16.777344 22.5625 16.886719 22.53125 17 22.5 C 17.109375 22.464844 17.21875 22.425781 17.324219 22.382812 C 17.429688 22.339844 17.535156 22.289062 17.636719 22.234375 C 17.738281 22.179688 17.835938 22.121094 17.933594 22.054688 C 18.03125 21.992188 18.121094 21.921875 18.210938 21.847656 C 18.300781 21.773438 18.386719 21.699219 18.46875 21.617188 C 18.550781 21.535156 18.628906 21.449219 18.699219 21.359375 C 18.773438 21.269531 18.84375 21.175781 18.90625 21.078125 C 18.96875 20.984375 19.03125 20.882812 19.085938 20.78125 C 19.140625 20.679688 19.1875 20.574219 19.234375 20.46875 C 19.277344 20.363281 19.316406 20.253906 19.351562 20.144531 C 19.382812 20.03125 19.410156 19.917969 19.433594 19.804688 C 19.457031 19.691406 19.472656 19.578125 19.484375 19.464844 C 19.496094 19.347656 19.503906 19.230469 19.503906 19.117188 C 19.503906 17.175781 17.9375 15.597656 16.003906 15.582031 C 15.917969 15.582031 15.828125 15.578125 15.742188 15.570312 C 15.65625 15.5625 15.566406 15.550781 15.480469 15.535156 C 15.394531 15.519531 15.308594 15.496094 15.226562 15.472656 C 15.140625 15.449219 15.058594 15.417969 14.976562 15.386719 C 14.894531 15.351562 14.816406 15.316406 14.738281 15.273438 C 14.660156 15.234375 14.585938 15.1875 14.511719 15.140625 C 14.4375 15.089844 14.367188 15.039062 14.296875 14.984375 C 14.230469 14.929688 14.164062 14.871094 14.101562 14.808594 C 14.039062 14.746094 13.980469 14.679688 13.925781 14.613281 C 13.867188 14.546875 13.816406 14.476562 13.765625 14.402344 C 13.71875 14.328125 13.671875 14.253906 13.632812 14.175781 C 13.589844 14.097656 13.550781 14.019531 13.519531 13.9375 C 13.484375 13.855469 13.453125 13.773438 13.429688 13.691406 C 13.402344 13.605469 13.382812 13.519531 13.363281 13.433594 C 13.347656 13.347656 13.335938 13.261719 13.324219 13.171875 C 13.316406 13.085938 13.3125 12.996094 13.3125 12.910156 C 13.3125 12.820312 13.316406 12.734375 13.324219 12.644531 C 13.335938 12.558594 13.347656 12.46875 13.363281 12.382812 C 13.382812 12.296875 13.402344 12.210938 13.429688 12.128906 C 13.453125 12.042969 13.484375 11.960938 13.519531 11.878906 C 13.550781 11.796875 13.589844 11.71875 13.632812 11.640625 C 13.671875 11.5625 13.71875 11.488281 13.765625 11.414062 C 13.816406 11.34375 13.867188 11.273438 13.925781 11.203125 C 13.980469 11.136719 14.039062 11.070312 14.101562 11.007812 C 14.164062 10.949219 14.230469 10.890625 14.296875 10.832031 C 14.367188 10.777344 14.4375 10.726562 14.511719 10.675781 C 14.585938 10.628906 14.660156 10.585938 14.738281 10.542969 C 14.816406 10.503906 14.894531 10.464844 14.976562 10.433594 C 15.058594 10.398438 15.140625 10.371094 15.226562 10.34375 C 15.308594 10.320312 15.394531 10.300781 15.480469 10.285156 C 15.566406 10.265625 15.65625 10.253906 15.742188 10.246094 C 15.828125 10.238281 15.917969 10.234375 16.003906 10.238281 L 18.25 10.238281 L 18.25 10.921875 Z M 21.054688 14.023438 C 20.886719 13.859375 20.714844 13.699219 20.535156 13.550781 C 20.351562 13.398438 20.164062 13.257812 19.96875 13.128906 C 19.773438 12.996094 19.570312 12.875 19.363281 12.761719 C 19.15625 12.652344 18.941406 12.550781 18.726562 12.460938 C 18.507812 12.371094 18.285156 12.289062 18.0625 12.222656 C 17.835938 12.15625 17.609375 12.097656 17.378906 12.050781 C 17.144531 12.007812 16.914062 11.972656 16.679688 11.949219 C 16.445312 11.925781 16.210938 11.914062 15.976562 11.917969 L 15.976562 12.78125 C 19.460938 12.78125 22.296875 15.621094 22.296875 19.117188 C 22.296875 22.609375 19.460938 25.453125 15.976562 25.453125 L 9.996094 25.453125 L 9.996094 18.515625 L 9.132812 18.515625 L 9.132812 26.316406 L 15.976562 26.316406 C 16.152344 26.316406 16.328125 26.308594 16.503906 26.296875 C 16.679688 26.285156 16.855469 26.265625 17.027344 26.238281 C 17.203125 26.214844 17.375 26.179688 17.546875 26.140625 C 17.71875 26.101562 17.890625 26.058594 18.058594 26.007812 C 18.226562 25.957031 18.394531 25.898438 18.558594 25.835938 C 18.722656 25.769531 18.886719 25.703125 19.046875 25.625 C 19.203125 25.550781 19.363281 25.46875 19.515625 25.382812 C 19.667969 25.292969 19.816406 25.203125 19.964844 25.105469 C 20.113281 25.003906 20.253906 24.902344 20.394531 24.792969 C 20.53125 24.683594 20.667969 24.570312 20.796875 24.453125 C 20.929688 24.332031 21.054688 24.210938 21.175781 24.082031 C 21.296875 23.953125 21.414062 23.820312 21.527344 23.683594 C 21.636719 23.546875 21.746094 23.40625 21.847656 23.261719 C 21.949219 23.117188 22.042969 22.96875 22.136719 22.816406 C 22.226562 22.667969 22.3125 22.511719 22.390625 22.355469 C 22.46875 22.195312 22.542969 22.035156 22.609375 21.871094 C 22.679688 21.710938 22.738281 21.542969 22.792969 21.375 C 22.851562 21.207031 22.898438 21.039062 22.941406 20.867188 C 22.984375 20.695312 23.019531 20.523438 23.050781 20.347656 C 23.082031 20.171875 23.105469 20 23.121094 19.824219 C 23.140625 19.648438 23.152344 19.46875 23.15625 19.292969 C 23.160156 19.117188 23.15625 18.941406 23.148438 18.761719 C 23.140625 18.585938 23.125 18.410156 23.101562 18.234375 C 23.082031 18.058594 23.054688 17.886719 23.019531 17.710938 C 22.984375 17.539062 22.945312 17.367188 22.898438 17.195312 C 22.851562 17.027344 22.796875 16.855469 22.738281 16.691406 C 22.679688 16.523438 22.613281 16.359375 22.542969 16.199219 C 22.46875 16.035156 22.390625 15.878906 22.308594 15.722656 C 22.226562 15.566406 22.136719 15.414062 22.042969 15.265625 C 21.949219 15.113281 21.847656 14.96875 21.742188 14.828125 C 21.640625 14.683594 21.527344 14.546875 21.414062 14.414062 C 21.296875 14.28125 21.179688 14.148438 21.054688 14.023438 Z M 10.996094 20.199219 L 10.996094 24.484375 L 15.976562 24.484375 C 18.925781 24.484375 21.328125 22.078125 21.328125 19.117188 C 21.328125 16.15625 18.929688 13.75 15.976562 13.75 L 15.976562 14.613281 C 18.453125 14.613281 20.46875 16.632812 20.46875 19.117188 C 20.46875 21.601562 18.453125 23.621094 15.976562 23.621094 L 11.859375 23.621094 L 11.859375 20.199219 Z M 10.996094 20.199219 "/>
</g>
</g>
</svg>
